<svg xmlns="http://www.w3.org/2000/svg" viewBox="0 0 900 1100" width="900" height="1100" role="img" aria-label="Composicion floral nosotros-manos" preserveAspectRatio="xMidYMid slice"><defs>
<linearGradient id="bg52" x1="0" y1="0" x2="0.35" y2="1">
  <stop offset="0" stop-color="#F6EDE7"/><stop offset="1" stop-color="#EAD6CD"/>
</linearGradient>
<radialGradient id="glow52" cx="0.5" cy="0.22" r="0.75">
  <stop offset="0" stop-color="#FFFFFF" stop-opacity="0.75"/><stop offset="1" stop-color="#FFFFFF" stop-opacity="0"/>
</radialGradient>
<radialGradient id="vig52" cx="0.5" cy="0.45" r="0.78">
  <stop offset="0.55" stop-color="#000000" stop-opacity="0"/><stop offset="1" stop-color="#2B241F" stop-opacity="0.26"/>
</radialGradient>
<filter id="grain52" x="0" y="0" width="100%" height="100%">
  <feTurbulence type="fractalNoise" baseFrequency="0.9" numOctaves="3" seed="52" result="n"/>
  <feColorMatrix type="saturate" values="0" in="n" result="m"/>
  <feComponentTransfer in="m"><feFuncA type="linear" slope="0.5"/></feComponentTransfer>
</filter>
<filter id="soft52" x="-20%" y="-20%" width="140%" height="140%">
  <feGaussianBlur stdDeviation="22.0"/>
</filter>
<filter id="shadow52" x="-30%" y="-30%" width="160%" height="180%">
  <feDropShadow dx="0" dy="13.2" stdDeviation="19.8" flood-color="#4A3B33" flood-opacity="0.20"/>
</filter>
</defs><rect width="900" height="1100" fill="url(#bg52)"/><g filter="url(#soft52)" opacity="0.55"><circle cx="881" cy="54" r="226" fill="#F3D5CC" opacity="0.24"/><circle cx="334" cy="34" r="131" fill="#A8B79C" opacity="0.17"/><circle cx="165" cy="343" r="210" fill="#E9B7AA" opacity="0.19"/><circle cx="394" cy="235" r="134" fill="#F3D5CC" opacity="0.14"/><circle cx="247" cy="770" r="175" fill="#A8B79C" opacity="0.11"/></g><rect width="900" height="1100" fill="url(#glow52)"/><path d="M450.0 946.0 Q 348.7 689.0 202.5 432.0" fill="none" stroke="#A8B79C" stroke-width="3.6" stroke-linecap="round" opacity="0.85"/><path d="M450.0 946.0 Q 355.9 689.5 247.5 433.0" fill="none" stroke="#8E9F84" stroke-width="2.2" stroke-linecap="round" opacity="0.85"/><path d="M450.0 946.0 Q 382.4 670.3 292.5 394.5" fill="none" stroke="#A8B79C" stroke-width="3.2" stroke-linecap="round" opacity="0.85"/><path d="M450.0 946.0 Q 367.4 645.0 337.5 343.9" fill="none" stroke="#A8B79C" stroke-width="2.4" stroke-linecap="round" opacity="0.85"/><path d="M450.0 946.0 Q 393.2 646.7 382.5 347.4" fill="none" stroke="#8E9F84" stroke-width="3.5" stroke-linecap="round" opacity="0.85"/><path d="M450.0 946.0 Q 418.5 653.5 427.5 361.1" fill="none" stroke="#8E9F84" stroke-width="3.3" stroke-linecap="round" opacity="0.85"/><path d="M450.0 946.0 Q 456.2 633.2 472.5 320.4" fill="none" stroke="#A8B79C" stroke-width="2.5" stroke-linecap="round" opacity="0.85"/><path d="M450.0 946.0 Q 499.0 647.4 517.5 348.8" fill="none" stroke="#8E9F84" stroke-width="2.5" stroke-linecap="round" opacity="0.85"/><path d="M450.0 946.0 Q 539.4 679.2 562.5 412.3" fill="none" stroke="#8E9F84" stroke-width="3.8" stroke-linecap="round" opacity="0.85"/><path d="M450.0 946.0 Q 525.4 697.0 607.5 448.0" fill="none" stroke="#8E9F84" stroke-width="3.8" stroke-linecap="round" opacity="0.85"/><path d="M450.0 946.0 Q 532.5 706.6 652.5 467.1" fill="none" stroke="#A8B79C" stroke-width="3.9" stroke-linecap="round" opacity="0.85"/><path d="M450.0 946.0 Q 586.2 699.3 697.5 452.6" fill="none" stroke="#6F8266" stroke-width="3.3" stroke-linecap="round" opacity="0.85"/><path d="M0 0 C 10.9 -30.7, 10.9 -65.3, 0 -96.1 C -10.9 -65.3, -10.9 -30.7, 0 0 Z" fill="#6F8266" opacity="0.72" transform="translate(358.2 755.4) rotate(-37.1)"/><path d="M0 0 C 16.2 -33.1, 16.2 -70.4, 0 -103.5 C -16.2 -70.4, -16.2 -33.1, 0 0 Z" fill="#A8B79C" opacity="0.70" transform="translate(381.7 804.1) rotate(-40.3)"/><path d="M0 0 C 13.0 -20.8, 13.0 -44.3, 0 -65.1 C -13.0 -44.3, -13.0 -20.8, 0 0 Z" fill="#8E9F84" opacity="0.87" transform="translate(343.5 724.7) rotate(-44.3)"/><path d="M0 0 C 13.6 -25.3, 13.6 -53.8, 0 -79.1 C -13.6 -53.8, -13.6 -25.3, 0 0 Z" fill="#8E9F84" opacity="0.72" transform="translate(240.5 510.9) rotate(67.4)"/><path d="M0 0 C 13.6 -35.5, 13.6 -75.4, 0 -110.9 C -13.6 -75.4, -13.6 -35.5, 0 0 Z" fill="#A8B79C" opacity="0.78" transform="translate(391.9 798.7) rotate(-79.4)"/><path d="M0 0 C 16.6 -21.2, 16.6 -45.0, 0 -66.1 C -16.6 -45.0, -16.6 -21.2, 0 0 Z" fill="#8E9F84" opacity="0.82" transform="translate(355.3 706.2) rotate(49.8)"/><path d="M0 0 C 24.3 -21.5, 24.3 -45.7, 0 -67.2 C -24.3 -45.7, -24.3 -21.5, 0 0 Z" fill="#6F8266" opacity="0.79" transform="translate(300.0 566.1) rotate(-51.3)"/><path d="M0 0 C 22.9 -29.9, 22.9 -63.5, 0 -93.3 C -22.9 -63.5, -22.9 -29.9, 0 0 Z" fill="#A8B79C" opacity="0.82" transform="translate(346.0 581.8) rotate(67.4)"/><path d="M0 0 C 12.5 -37.1, 12.5 -78.8, 0 -115.9 C -12.5 -78.8, -12.5 -37.1, 0 0 Z" fill="#6F8266" opacity="0.75" transform="translate(317.5 482.0) rotate(-60.4)"/><path d="M0 0 C 11.6 -30.5, 11.6 -64.7, 0 -95.2 C -11.6 -64.7, -11.6 -30.5, 0 0 Z" fill="#6F8266" opacity="0.91" transform="translate(327.3 516.4) rotate(80.0)"/><path d="M0 0 C 20.1 -22.0, 20.1 -46.8, 0 -68.8 C -20.1 -46.8, -20.1 -22.0, 0 0 Z" fill="#6F8266" opacity="0.73" transform="translate(366.7 500.4) rotate(60.5)"/><path d="M0 0 C 22.2 -28.7, 22.2 -61.1, 0 -89.8 C -22.2 -61.1, -22.2 -28.7, 0 0 Z" fill="#8E9F84" opacity="0.77" transform="translate(375.0 544.6) rotate(-37.8)"/><path d="M0 0 C 23.9 -38.7, 23.9 -82.2, 0 -120.9 C -23.9 -82.2, -23.9 -38.7, 0 0 Z" fill="#6F8266" opacity="0.73" transform="translate(404.2 540.1) rotate(61.0)"/><path d="M0 0 C 22.1 -22.7, 22.1 -48.3, 0 -71.1 C -22.1 -48.3, -22.1 -22.7, 0 0 Z" fill="#8E9F84" opacity="0.70" transform="translate(432.1 787.4) rotate(-48.3)"/><path d="M0 0 C 24.5 -20.9, 24.5 -44.3, 0 -65.2 C -24.5 -44.3, -24.5 -20.9, 0 0 Z" fill="#6F8266" opacity="0.75" transform="translate(428.2 752.2) rotate(56.1)"/><path d="M0 0 C 21.1 -26.9, 21.1 -57.1, 0 -84.0 C -21.1 -57.1, -21.1 -26.9, 0 0 Z" fill="#A8B79C" opacity="0.82" transform="translate(398.4 488.5) rotate(58.4)"/><path d="M0 0 C 12.4 -31.3, 12.4 -66.6, 0 -98.0 C -12.4 -66.6, -12.4 -31.3, 0 0 Z" fill="#8E9F84" opacity="0.78" transform="translate(431.6 468.5) rotate(75.2)"/><path d="M0 0 C 24.1 -29.0, 24.1 -61.6, 0 -90.6 C -24.1 -61.6, -24.1 -29.0, 0 0 Z" fill="#A8B79C" opacity="0.81" transform="translate(440.2 692.3) rotate(-73.5)"/><path d="M0 0 C 17.3 -17.7, 17.3 -37.5, 0 -55.2 C -17.3 -37.5, -17.3 -17.7, 0 0 Z" fill="#6F8266" opacity="0.92" transform="translate(442.3 744.8) rotate(71.6)"/><path d="M0 0 C 19.8 -31.6, 19.8 -67.2, 0 -98.8 C -19.8 -67.2, -19.8 -31.6, 0 0 Z" fill="#A8B79C" opacity="0.83" transform="translate(460.2 662.9) rotate(77.0)"/><path d="M0 0 C 17.0 -24.6, 17.0 -52.3, 0 -76.9 C -17.0 -52.3, -17.0 -24.6, 0 0 Z" fill="#A8B79C" opacity="0.76" transform="translate(462.0 613.6) rotate(-74.7)"/><path d="M0 0 C 23.8 -20.9, 23.8 -44.4, 0 -65.4 C -23.8 -44.4, -23.8 -20.9, 0 0 Z" fill="#6F8266" opacity="0.93" transform="translate(472.0 751.0) rotate(43.9)"/><path d="M0 0 C 16.4 -22.0, 16.4 -46.8, 0 -68.9 C -16.4 -46.8, -16.4 -22.0, 0 0 Z" fill="#A8B79C" opacity="0.71" transform="translate(484.0 645.6) rotate(39.5)"/><path d="M0 0 C 25.0 -29.6, 25.0 -62.9, 0 -92.5 C -25.0 -62.9, -25.0 -29.6, 0 0 Z" fill="#8E9F84" opacity="0.94" transform="translate(502.1 485.2) rotate(-82.2)"/><path d="M0 0 C 18.1 -26.2, 18.1 -55.7, 0 -82.0 C -18.1 -55.7, -18.1 -26.2, 0 0 Z" fill="#A8B79C" opacity="0.87" transform="translate(526.4 583.5) rotate(-42.0)"/><path d="M0 0 C 15.7 -24.0, 15.7 -51.1, 0 -75.1 C -15.7 -51.1, -15.7 -24.0, 0 0 Z" fill="#A8B79C" opacity="0.86" transform="translate(542.3 508.1) rotate(48.4)"/><path d="M0 0 C 19.1 -37.8, 19.1 -80.3, 0 -118.1 C -19.1 -80.3, -19.1 -37.8, 0 0 Z" fill="#6F8266" opacity="0.86" transform="translate(500.0 708.8) rotate(68.9)"/><path d="M0 0 C 18.7 -24.8, 18.7 -52.8, 0 -77.6 C -18.7 -52.8, -18.7 -24.8, 0 0 Z" fill="#A8B79C" opacity="0.83" transform="translate(531.5 559.6) rotate(-38.1)"/><path d="M0 0 C 12.0 -17.9, 12.0 -38.0, 0 -55.8 C -12.0 -38.0, -12.0 -17.9, 0 0 Z" fill="#A8B79C" opacity="0.78" transform="translate(526.4 704.4) rotate(76.8)"/><path d="M0 0 C 11.3 -28.5, 11.3 -60.5, 0 -89.0 C -11.3 -60.5, -11.3 -28.5, 0 0 Z" fill="#8E9F84" opacity="0.71" transform="translate(502.7 779.4) rotate(54.1)"/><path d="M0 0 C 13.1 -27.7, 13.1 -58.8, 0 -86.5 C -13.1 -58.8, -13.1 -27.7, 0 0 Z" fill="#8E9F84" opacity="0.78" transform="translate(530.7 690.8) rotate(61.1)"/><path d="M0 0 C 25.0 -30.5, 25.0 -64.9, 0 -95.4 C -25.0 -64.9, -25.0 -30.5, 0 0 Z" fill="#6F8266" opacity="0.89" transform="translate(557.2 692.4) rotate(44.8)"/><path d="M0 0 C 17.1 -18.7, 17.1 -39.7, 0 -58.3 C -17.1 -39.7, -17.1 -18.7, 0 0 Z" fill="#A8B79C" opacity="0.93" transform="translate(541.6 729.5) rotate(75.4)"/><path d="M0 0 C 11.3 -31.1, 11.3 -66.1, 0 -97.2 C -11.3 -66.1, -11.3 -31.1, 0 0 Z" fill="#8E9F84" opacity="0.78" transform="translate(596.9 598.5) rotate(-61.2)"/><path d="M0 0 C 14.2 -17.6, 14.2 -37.4, 0 -55.1 C -14.2 -37.4, -14.2 -17.6, 0 0 Z" fill="#A8B79C" opacity="0.76" transform="translate(543.8 759.1) rotate(58.1)"/><path d="M0 0 C 24.7 -29.2, 24.7 -62.0, 0 -91.1 C -24.7 -62.0, -24.7 -29.2, 0 0 Z" fill="#6F8266" opacity="0.74" transform="translate(578.0 690.9) rotate(-55.9)"/><g filter="url(#shadow52)"><path d="M234.0 792.0 Q 450.0 836.0 666.0 792.0 L 480.2 1166.0 Q 450.0 1188.0 419.8 1166.0 Z" fill="#FBF6EE" opacity="0.97"/></g><path d="M316.1 979.0 Q 450.0 1028.5 583.9 979.0" fill="none" stroke="#B9705B" stroke-width="6.6" opacity="0.45" stroke-linecap="round"/><path d="M331.2 825.0 L 437.0 1155.0" fill="none" stroke="#E6DBCB" stroke-width="4.4" opacity="0.8"/><g transform="translate(652.5 467.1)"><circle r="69.5" fill="#E9B7AA" opacity="0.95"/><circle r="54.2" fill="#DCA093" opacity="0.90"/><circle r="38.9" fill="#C98476" opacity="0.85"/><circle r="23.6" fill="#F3D5CC" opacity="0.80"/><path d="M0 -20.8 A 20.8 20.8 0 1 1 -16.7 12.5" fill="none" stroke="#B9705B" stroke-opacity="0.35" stroke-width="4.9"/></g><g transform="translate(697.5 452.6)"><ellipse cx="36.9" cy="3.0" rx="39.9" ry="32.8" fill="#E9B7AA" opacity="0.90" transform="rotate(5 36.9 3.0)"/><ellipse cx="27.8" cy="24.5" rx="39.9" ry="32.8" fill="#E9B7AA" opacity="0.90" transform="rotate(41 27.8 24.5)"/><ellipse cx="-12.2" cy="35.0" rx="39.9" ry="32.8" fill="#E9B7AA" opacity="0.90" transform="rotate(109 -12.2 35.0)"/><ellipse cx="-35.4" cy="10.9" rx="39.9" ry="32.8" fill="#E9B7AA" opacity="0.90" transform="rotate(163 -35.4 10.9)"/><ellipse cx="-35.8" cy="-9.4" rx="39.9" ry="32.8" fill="#E9B7AA" opacity="0.90" transform="rotate(195 -35.8 -9.4)"/><ellipse cx="-9.9" cy="-35.7" rx="39.9" ry="32.8" fill="#E9B7AA" opacity="0.90" transform="rotate(255 -9.9 -35.7)"/><ellipse cx="18.0" cy="-32.4" rx="39.9" ry="32.8" fill="#E9B7AA" opacity="0.90" transform="rotate(299 18.0 -32.4)"/><ellipse cx="25.3" cy="8.5" rx="28.7" ry="23.6" fill="#DCA093" opacity="0.84" transform="rotate(19 25.3 8.5)"/><ellipse cx="8.9" cy="25.1" rx="28.7" ry="23.6" fill="#DCA093" opacity="0.84" transform="rotate(71 8.9 25.1)"/><ellipse cx="-23.1" cy="13.3" rx="28.7" ry="23.6" fill="#DCA093" opacity="0.84" transform="rotate(150 -23.1 13.3)"/><ellipse cx="-23.7" cy="-12.2" rx="28.7" ry="23.6" fill="#DCA093" opacity="0.84" transform="rotate(207 -23.7 -12.2)"/><ellipse cx="-10.9" cy="-24.3" rx="28.7" ry="23.6" fill="#DCA093" opacity="0.84" transform="rotate(246 -10.9 -24.3)"/><ellipse cx="17.4" cy="-20.2" rx="28.7" ry="23.6" fill="#DCA093" opacity="0.84" transform="rotate(311 17.4 -20.2)"/><ellipse cx="14.5" cy="8.2" rx="17.9" ry="14.7" fill="#C98476" opacity="0.78" transform="rotate(29 14.5 8.2)"/><ellipse cx="-2.3" cy="16.5" rx="17.9" ry="14.7" fill="#C98476" opacity="0.78" transform="rotate(98 -2.3 16.5)"/><ellipse cx="-16.7" cy="-0.4" rx="17.9" ry="14.7" fill="#C98476" opacity="0.78" transform="rotate(181 -16.7 -0.4)"/><ellipse cx="-3.4" cy="-16.3" rx="17.9" ry="14.7" fill="#C98476" opacity="0.78" transform="rotate(258 -3.4 -16.3)"/><ellipse cx="13.4" cy="-9.9" rx="17.9" ry="14.7" fill="#C98476" opacity="0.78" transform="rotate(324 13.4 -9.9)"/><circle r="11.4" fill="#B9705B" opacity="0.55"/></g><g transform="translate(472.5 320.4)"><ellipse cx="0" cy="-49.7" rx="18.2" ry="49.7" fill="#E9B7AA" opacity="0.95" transform="rotate(-3)"/><ellipse cx="0" cy="-49.7" rx="18.2" ry="49.7" fill="#DCA093" opacity="0.95" transform="rotate(40)"/><ellipse cx="0" cy="-49.7" rx="18.2" ry="49.7" fill="#E9B7AA" opacity="0.95" transform="rotate(83)"/><ellipse cx="0" cy="-49.7" rx="18.2" ry="49.7" fill="#DCA093" opacity="0.95" transform="rotate(116)"/><ellipse cx="0" cy="-49.7" rx="18.2" ry="49.7" fill="#E9B7AA" opacity="0.95" transform="rotate(157)"/><ellipse cx="0" cy="-49.7" rx="18.2" ry="49.7" fill="#DCA093" opacity="0.95" transform="rotate(200)"/><ellipse cx="0" cy="-49.7" rx="18.2" ry="49.7" fill="#E9B7AA" opacity="0.95" transform="rotate(240)"/><ellipse cx="0" cy="-49.7" rx="18.2" ry="49.7" fill="#DCA093" opacity="0.95" transform="rotate(277)"/><ellipse cx="0" cy="-49.7" rx="18.2" ry="49.7" fill="#E9B7AA" opacity="0.95" transform="rotate(323)"/><circle r="21.6" fill="#B9705B"/></g><g transform="translate(292.5 394.5)"><path d="M0 0 C -51.9 -41.5, -43.6 -114.2, 0 -116.8 C 43.6 -114.2, 51.9 -41.5, 0 0 Z" fill="#F3D5CC" opacity="0.94" transform="rotate(-24)"/><path d="M0 0 C -51.9 -41.5, -43.6 -114.2, 0 -129.8 C 43.6 -114.2, 51.9 -41.5, 0 0 Z" fill="#C98476" opacity="0.94" transform="rotate(0)"/><path d="M0 0 C -51.9 -41.5, -43.6 -114.2, 0 -116.8 C 43.6 -114.2, 51.9 -41.5, 0 0 Z" fill="#C98476" opacity="0.94" transform="rotate(24)"/></g><g transform="translate(337.5 343.9)"><circle cx="61.8" cy="-24.6" r="16.2" fill="#DCA093" opacity="0.9"/><circle cx="11.7" cy="-5.1" r="18.7" fill="#F3D5CC" opacity="0.9"/><circle cx="-23.5" cy="-67.4" r="11.9" fill="#C98476" opacity="0.9"/><circle cx="2.1" cy="3.2" r="13.3" fill="#F3D5CC" opacity="0.9"/><circle cx="57.2" cy="34.9" r="20.0" fill="#DCA093" opacity="0.9"/><circle cx="-16.8" cy="-5.8" r="21.5" fill="#DCA093" opacity="0.9"/><circle cx="50.7" cy="53.0" r="14.7" fill="#E9B7AA" opacity="0.9"/><circle cx="-63.2" cy="-26.2" r="12.1" fill="#DCA093" opacity="0.9"/><circle cx="36.5" cy="6.4" r="19.9" fill="#DCA093" opacity="0.9"/><circle cx="23.6" cy="-43.8" r="13.3" fill="#C98476" opacity="0.9"/></g><g transform="translate(517.5 348.8)"><ellipse cx="35.4" cy="-6.8" rx="38.9" ry="31.9" fill="#E9B7AA" opacity="0.90" transform="rotate(-11 35.4 -6.8)"/><ellipse cx="20.5" cy="29.7" rx="38.9" ry="31.9" fill="#E9B7AA" opacity="0.90" transform="rotate(55 20.5 29.7)"/><ellipse cx="-16.2" cy="32.2" rx="38.9" ry="31.9" fill="#E9B7AA" opacity="0.90" transform="rotate(117 -16.2 32.2)"/><ellipse cx="-28.6" cy="22.0" rx="38.9" ry="31.9" fill="#E9B7AA" opacity="0.90" transform="rotate(142 -28.6 22.0)"/><ellipse cx="-33.9" cy="-12.4" rx="38.9" ry="31.9" fill="#E9B7AA" opacity="0.90" transform="rotate(200 -33.9 -12.4)"/><ellipse cx="-16.2" cy="-32.3" rx="38.9" ry="31.9" fill="#E9B7AA" opacity="0.90" transform="rotate(243 -16.2 -32.3)"/><ellipse cx="25.0" cy="-26.0" rx="38.9" ry="31.9" fill="#E9B7AA" opacity="0.90" transform="rotate(314 25.0 -26.0)"/><ellipse cx="25.8" cy="3.1" rx="28.0" ry="23.0" fill="#DCA093" opacity="0.84" transform="rotate(7 25.8 3.1)"/><ellipse cx="2.8" cy="25.8" rx="28.0" ry="23.0" fill="#DCA093" opacity="0.84" transform="rotate(84 2.8 25.8)"/><ellipse cx="-21.6" cy="14.5" rx="28.0" ry="23.0" fill="#DCA093" opacity="0.84" transform="rotate(146 -21.6 14.5)"/><ellipse cx="-22.4" cy="-13.2" rx="28.0" ry="23.0" fill="#DCA093" opacity="0.84" transform="rotate(210 -22.4 -13.2)"/><ellipse cx="-3.9" cy="-25.7" rx="28.0" ry="23.0" fill="#DCA093" opacity="0.84" transform="rotate(261 -3.9 -25.7)"/><ellipse cx="18.7" cy="-18.0" rx="28.0" ry="23.0" fill="#DCA093" opacity="0.84" transform="rotate(316 18.7 -18.0)"/><ellipse cx="15.0" cy="6.2" rx="17.5" ry="14.4" fill="#C98476" opacity="0.78" transform="rotate(22 15.0 6.2)"/><ellipse cx="-3.1" cy="15.9" rx="17.5" ry="14.4" fill="#C98476" opacity="0.78" transform="rotate(101 -3.1 15.9)"/><ellipse cx="-16.2" cy="-1.5" rx="17.5" ry="14.4" fill="#C98476" opacity="0.78" transform="rotate(185 -16.2 -1.5)"/><ellipse cx="-2.3" cy="-16.1" rx="17.5" ry="14.4" fill="#C98476" opacity="0.78" transform="rotate(262 -2.3 -16.1)"/><ellipse cx="12.8" cy="-10.0" rx="17.5" ry="14.4" fill="#C98476" opacity="0.78" transform="rotate(322 12.8 -10.0)"/><circle r="11.1" fill="#B9705B" opacity="0.55"/></g><g transform="translate(427.5 361.1)"><circle r="102.8" fill="#E9B7AA" opacity="0.95"/><circle r="80.1" fill="#DCA093" opacity="0.90"/><circle r="57.5" fill="#C98476" opacity="0.85"/><circle r="34.9" fill="#F3D5CC" opacity="0.80"/><path d="M0 -30.8 A 30.8 30.8 0 1 1 -24.7 18.5" fill="none" stroke="#B9705B" stroke-opacity="0.35" stroke-width="7.2"/></g><g transform="translate(247.5 433.0)"><ellipse cx="0" cy="-45.3" rx="16.6" ry="45.3" fill="#E9B7AA" opacity="0.95" transform="rotate(-0)"/><ellipse cx="0" cy="-45.3" rx="16.6" ry="45.3" fill="#DCA093" opacity="0.95" transform="rotate(41)"/><ellipse cx="0" cy="-45.3" rx="16.6" ry="45.3" fill="#E9B7AA" opacity="0.95" transform="rotate(83)"/><ellipse cx="0" cy="-45.3" rx="16.6" ry="45.3" fill="#DCA093" opacity="0.95" transform="rotate(116)"/><ellipse cx="0" cy="-45.3" rx="16.6" ry="45.3" fill="#E9B7AA" opacity="0.95" transform="rotate(157)"/><ellipse cx="0" cy="-45.3" rx="16.6" ry="45.3" fill="#DCA093" opacity="0.95" transform="rotate(201)"/><ellipse cx="0" cy="-45.3" rx="16.6" ry="45.3" fill="#E9B7AA" opacity="0.95" transform="rotate(243)"/><ellipse cx="0" cy="-45.3" rx="16.6" ry="45.3" fill="#DCA093" opacity="0.95" transform="rotate(281)"/><ellipse cx="0" cy="-45.3" rx="16.6" ry="45.3" fill="#E9B7AA" opacity="0.95" transform="rotate(319)"/><circle r="19.6" fill="#B9705B"/></g><g transform="translate(202.5 432.0)"><path d="M0 0 C -49.4 -39.5, -41.5 -108.6, 0 -111.1 C 41.5 -108.6, 49.4 -39.5, 0 0 Z" fill="#E9B7AA" opacity="0.94" transform="rotate(-24)"/><path d="M0 0 C -49.4 -39.5, -41.5 -108.6, 0 -123.4 C 41.5 -108.6, 49.4 -39.5, 0 0 Z" fill="#F3D5CC" opacity="0.94" transform="rotate(0)"/><path d="M0 0 C -49.4 -39.5, -41.5 -108.6, 0 -111.1 C 41.5 -108.6, 49.4 -39.5, 0 0 Z" fill="#F3D5CC" opacity="0.94" transform="rotate(24)"/></g><g transform="translate(382.5 347.4)"><circle cx="16.9" cy="47.8" r="19.7" fill="#E9B7AA" opacity="0.9"/><circle cx="3.7" cy="1.4" r="18.3" fill="#E9B7AA" opacity="0.9"/><circle cx="3.1" cy="1.9" r="20.8" fill="#DCA093" opacity="0.9"/><circle cx="35.0" cy="-33.7" r="11.8" fill="#C98476" opacity="0.9"/><circle cx="65.7" cy="36.0" r="15.8" fill="#E9B7AA" opacity="0.9"/><circle cx="12.2" cy="-5.6" r="17.1" fill="#E9B7AA" opacity="0.9"/><circle cx="18.0" cy="52.0" r="12.1" fill="#C98476" opacity="0.9"/><circle cx="42.8" cy="-54.3" r="19.4" fill="#DCA093" opacity="0.9"/><circle cx="-23.5" cy="26.7" r="21.1" fill="#F3D5CC" opacity="0.9"/><circle cx="2.1" cy="-4.8" r="17.7" fill="#C98476" opacity="0.9"/></g><g transform="translate(562.5 412.3)"><ellipse cx="37.6" cy="3.4" rx="40.7" ry="33.4" fill="#E9B7AA" opacity="0.90" transform="rotate(5 37.6 3.4)"/><ellipse cx="23.4" cy="29.7" rx="40.7" ry="33.4" fill="#E9B7AA" opacity="0.90" transform="rotate(52 23.4 29.7)"/><ellipse cx="-12.8" cy="35.6" rx="40.7" ry="33.4" fill="#E9B7AA" opacity="0.90" transform="rotate(110 -12.8 35.6)"/><ellipse cx="-30.1" cy="22.8" rx="40.7" ry="33.4" fill="#E9B7AA" opacity="0.90" transform="rotate(143 -30.1 22.8)"/><ellipse cx="-34.5" cy="-15.5" rx="40.7" ry="33.4" fill="#E9B7AA" opacity="0.90" transform="rotate(204 -34.5 -15.5)"/><ellipse cx="-8.1" cy="-36.9" rx="40.7" ry="33.4" fill="#E9B7AA" opacity="0.90" transform="rotate(258 -8.1 -36.9)"/><ellipse cx="19.1" cy="-32.6" rx="40.7" ry="33.4" fill="#E9B7AA" opacity="0.90" transform="rotate(300 19.1 -32.6)"/><ellipse cx="24.0" cy="12.9" rx="29.3" ry="24.1" fill="#DCA093" opacity="0.84" transform="rotate(28 24.0 12.9)"/><ellipse cx="-0.8" cy="27.2" rx="29.3" ry="24.1" fill="#DCA093" opacity="0.84" transform="rotate(92 -0.8 27.2)"/><ellipse cx="-20.0" cy="18.5" rx="29.3" ry="24.1" fill="#DCA093" opacity="0.84" transform="rotate(137 -20.0 18.5)"/><ellipse cx="-24.9" cy="-10.9" rx="29.3" ry="24.1" fill="#DCA093" opacity="0.84" transform="rotate(204 -24.9 -10.9)"/><ellipse cx="-0.1" cy="-27.2" rx="29.3" ry="24.1" fill="#DCA093" opacity="0.84" transform="rotate(270 -0.1 -27.2)"/><ellipse cx="23.6" cy="-13.5" rx="29.3" ry="24.1" fill="#DCA093" opacity="0.84" transform="rotate(330 23.6 -13.5)"/><ellipse cx="12.9" cy="11.1" rx="18.3" ry="15.0" fill="#C98476" opacity="0.78" transform="rotate(41 12.9 11.1)"/><ellipse cx="-7.3" cy="15.3" rx="18.3" ry="15.0" fill="#C98476" opacity="0.78" transform="rotate(116 -7.3 15.3)"/><ellipse cx="-17.0" cy="1.2" rx="18.3" ry="15.0" fill="#C98476" opacity="0.78" transform="rotate(176 -17.0 1.2)"/><ellipse cx="-8.0" cy="-15.0" rx="18.3" ry="15.0" fill="#C98476" opacity="0.78" transform="rotate(242 -8.0 -15.0)"/><ellipse cx="15.5" cy="-7.1" rx="18.3" ry="15.0" fill="#C98476" opacity="0.78" transform="rotate(335 15.5 -7.1)"/><circle r="11.6" fill="#B9705B" opacity="0.55"/></g><g transform="translate(607.5 448.0)"><circle r="72.3" fill="#E9B7AA" opacity="0.95"/><circle r="56.4" fill="#DCA093" opacity="0.90"/><circle r="40.5" fill="#C98476" opacity="0.85"/><circle r="24.6" fill="#F3D5CC" opacity="0.80"/><path d="M0 -21.7 A 21.7 21.7 0 1 1 -17.4 13.0" fill="none" stroke="#B9705B" stroke-opacity="0.35" stroke-width="5.1"/></g><rect width="900" height="1100" fill="url(#vig52)"/><rect width="900" height="1100" filter="url(#grain52)" opacity="0.10"/></svg>